<svg width="800" height="800" viewBox="0 0 800 800" fill="none" xmlns="http://www.w3.org/2000/svg">
<path d="M263.051 361.032H227.478V327.238C227.478 321.345 222.699 316.566 216.806 316.566H175.898C170.005 316.566 165.226 321.345 165.226 327.238V361.032H127.875C121.982 361.032 117.203 365.811 117.203 371.704V414.391C117.203 420.284 121.982 425.063 127.875 425.063H165.226V462.414C165.226 468.307 170.005 473.086 175.898 473.086H216.806C222.699 473.086 227.478 468.307 227.478 462.414V425.063H263.051C268.943 425.063 273.722 420.284 273.722 414.391V371.704C273.722 365.809 268.943 361.032 263.051 361.032ZM252.379 403.719H216.806C210.914 403.719 206.134 408.498 206.134 414.391V451.742H186.57V414.391C186.57 408.498 181.79 403.719 175.898 403.719H138.546V382.376H175.898C181.79 382.376 186.57 377.596 186.57 371.704V337.91H206.134V371.704C206.134 377.596 210.914 382.376 216.806 382.376H252.379V403.719Z" fill="#0D2238"/>
<path d="M555.801 424.933H561.195C566.713 424.933 571.2 429.42 571.2 434.938V440.332C571.2 457.619 585.264 471.681 602.55 471.681C619.837 471.681 633.899 457.617 633.899 440.332V434.938C633.899 429.42 638.386 424.933 643.905 424.933H649.298C666.585 424.933 680.648 410.869 680.648 393.584C680.648 376.3 666.585 362.236 649.298 362.236H643.905C638.386 362.236 633.899 357.749 633.899 352.231V346.837C633.899 329.55 619.837 315.487 602.55 315.487C585.264 315.487 571.2 329.55 571.2 346.837V352.231C571.2 357.749 566.713 362.236 561.195 362.236H555.801C538.514 362.236 524.451 376.3 524.451 393.584C524.451 410.869 538.514 424.933 555.801 424.933ZM555.801 383.578H561.195C578.482 383.578 592.544 369.514 592.544 352.23V346.835C592.544 341.318 597.031 336.828 602.55 336.828C608.068 336.828 612.555 341.318 612.555 346.835V352.23C612.555 369.516 626.619 383.578 643.905 383.578H649.298C654.817 383.578 659.305 388.065 659.305 393.583C659.305 399.1 654.817 403.588 649.298 403.588H643.905C626.619 403.588 612.555 417.651 612.555 434.936V440.33C612.555 445.848 608.068 450.335 602.55 450.335C597.031 450.335 592.544 445.848 592.544 440.33V434.936C592.544 417.649 578.482 403.588 561.195 403.588H555.801C550.282 403.588 545.794 399.1 545.794 393.583C545.794 388.065 550.282 383.578 555.801 383.578Z" fill="#0D2238"/>
<path d="M371.547 355.696H328.86C322.967 355.696 318.188 360.475 318.188 366.368C318.188 372.26 322.967 377.04 328.86 377.04H371.547C377.44 377.04 382.219 372.26 382.219 366.368C382.219 360.475 377.44 355.696 371.547 355.696Z" fill="#0D2238"/>
<path d="M481.822 366.368C481.822 360.475 477.043 355.696 471.15 355.696H428.463C422.571 355.696 417.792 360.475 417.792 366.368C417.792 372.26 422.571 377.04 428.463 377.04H471.15C477.043 377.04 481.822 372.26 481.822 366.368Z" fill="#0D2238"/>
<path d="M796.918 564.34C796.918 564.34 756.811 382.799 756.432 378.927C748.797 300.902 682.881 239.728 602.954 239.728C558.305 239.728 516.468 258.593 487.363 291.664H408.898V85.3423H387.555V291.664H312.616C283.562 258.659 241.709 239.832 196.982 239.832C117.551 239.832 51.959 300.27 43.6635 377.627C43.1993 381.961 3.08224 564.338 3.08224 564.338C-3.43822 592.896 0.465876 622.907 14.0742 648.847C27.6843 674.784 50.1608 695.052 77.3632 705.912C91.9267 711.727 107.452 714.654 122.999 714.654C135.087 714.654 147.189 712.883 158.851 709.324C185.511 701.186 208.843 684.023 224.549 660.995L317.128 525.241C318.772 525.374 320.429 525.461 322.106 525.461C352.165 525.461 377.189 503.55 382.08 474.863H416.763C421.655 503.548 446.678 525.461 476.737 525.461C478.788 525.461 480.814 525.356 482.813 525.157L575.449 660.995C591.153 684.024 614.485 701.188 641.147 709.324C652.813 712.883 664.909 714.654 676.999 714.654C692.544 714.654 708.075 711.727 722.635 705.912C749.839 695.052 772.316 674.784 785.924 648.847C799.536 622.909 803.438 592.898 796.918 564.34ZM206.915 648.971C179.873 688.626 129.856 703.89 85.2781 686.091C38.4912 667.412 12.6744 618.206 23.8905 569.093L51.879 446.531C59.472 467.519 71.6734 486.724 87.9817 502.897C117.057 531.733 155.781 547.614 197.019 547.614C231.974 547.614 263.753 536.7 289.595 516.009C291.457 517.192 293.382 518.281 295.374 519.259L206.915 648.971ZM322.106 504.119C300.318 504.119 282.594 486.395 282.594 464.607C282.594 442.821 300.318 425.095 322.106 425.095C343.895 425.095 361.619 442.819 361.619 464.607C361.619 486.393 343.895 504.119 322.106 504.119ZM416.913 453.521H381.933C376.703 425.242 351.875 403.751 322.106 403.751C288.551 403.751 261.251 431.051 261.251 464.607C261.251 478.415 265.88 491.157 273.658 501.378C252.094 517.687 225.849 526.27 197.017 526.27C161.446 526.27 128.061 512.587 103.009 487.742C77.9271 462.867 64.1142 429.657 64.1142 394.227C64.1142 320.863 123.718 261.178 196.98 261.178C237.033 261.178 274.379 278.651 299.445 309.117C301.473 311.581 304.494 313.009 307.685 313.009H492.291C495.482 313.009 498.504 311.581 500.532 309.117C525.655 278.583 562.987 261.073 602.954 261.073C676.223 261.073 735.832 320.744 735.832 394.093C735.832 467.25 676.189 526.767 602.878 526.767C575.304 526.767 548.179 517.749 525.342 501.181C533.029 490.991 537.595 478.324 537.595 464.607C537.595 431.051 510.293 403.751 476.737 403.751C446.97 403.751 422.142 425.242 416.913 453.521ZM437.227 464.607C437.227 442.821 454.952 425.095 476.739 425.095C498.527 425.095 516.253 442.819 516.253 464.607C516.253 486.395 498.527 504.119 476.739 504.119C454.952 504.119 437.227 486.393 437.227 464.607ZM714.72 686.091C670.142 703.892 620.125 688.626 593.083 648.971L504.326 518.821C506.076 517.927 507.776 516.95 509.425 515.897C536.572 536.713 569.402 548.108 602.878 548.108C669.623 548.108 726.598 505.585 748.059 446.257L776.109 569.091C787.325 618.206 761.507 667.412 714.72 686.091Z" fill="#0D2238"/>
</svg>
